<svg width="44" height="44" viewBox="0 0 44 44" fill="none" xmlns="http://www.w3.org/2000/svg">
<g filter="url(#filter0_d_1_67)">
<circle cx="22" cy="18" r="18" fill="#BE123C"/>
<path fill-rule="evenodd" clip-rule="evenodd" d="M13.6 14.4C13.6 13.7372 14.1372 13.2 14.8 13.2H29.2C29.8627 13.2 30.4 13.7372 30.4 14.4C30.4 15.0627 29.8627 15.6 29.2 15.6H14.8C14.1372 15.6 13.6 15.0627 13.6 14.4Z" fill="white"/>
<path fill-rule="evenodd" clip-rule="evenodd" d="M13.6 21.6C13.6 20.9372 14.1372 20.4 14.8 20.4H29.2C29.8627 20.4 30.4 20.9372 30.4 21.6C30.4 22.2627 29.8627 22.8 29.2 22.8H14.8C14.1372 22.8 13.6 22.2627 13.6 21.6Z" fill="white"/>
</g>
<defs>
<filter id="filter0_d_1_67" x="0" y="0" width="44" height="44" filterUnits="userSpaceOnUse" color-interpolation-filters="sRGB">
<feFlood flood-opacity="0" result="BackgroundImageFix"/>
<feColorMatrix in="SourceAlpha" type="matrix" values="0 0 0 0 0 0 0 0 0 0 0 0 0 0 0 0 0 0 127 0" result="hardAlpha"/>
<feOffset dy="4"/>
<feGaussianBlur stdDeviation="2"/>
<feComposite in2="hardAlpha" operator="out"/>
<feColorMatrix type="matrix" values="0 0 0 0 0 0 0 0 0 0 0 0 0 0 0 0 0 0 0.25 0"/>
<feBlend mode="normal" in2="BackgroundImageFix" result="effect1_dropShadow_1_67"/>
<feBlend mode="normal" in="SourceGraphic" in2="effect1_dropShadow_1_67" result="shape"/>
</filter>
</defs>
</svg>
